<svg id="Icon_awesome-walking" data-name="Icon awesome-walking" xmlns="http://www.w3.org/2000/svg" width="22.504" height="36.005" viewBox="0 0 22.504 36.005">
  <path id="Icon_awesome-walking-2" data-name="Icon awesome-walking" d="M14.625,6.75A3.375,3.375,0,1,0,11.25,3.375,3.376,3.376,0,0,0,14.625,6.75ZM21.27,17.234l-1.638-.83-.682-2.067A7.666,7.666,0,0,0,11.763,9c-2.531-.007-3.93.71-6.56,1.772A6.707,6.707,0,0,0,1.709,14.02l-.471.956a2.257,2.257,0,0,0,1,3.016,2.22,2.22,0,0,0,2.988-1.005l.471-.956a2.235,2.235,0,0,1,1.16-1.083l1.884-.759L7.671,18.457a4.516,4.516,0,0,0,1.048,4.134l4.212,4.6a4.538,4.538,0,0,1,1.048,1.948l1.287,5.154a2.25,2.25,0,1,0,4.366-1.09L18.07,26.944A4.5,4.5,0,0,0,17.023,25l-3.2-3.495,1.209-4.83.387,1.16a4.484,4.484,0,0,0,2.229,2.6l1.638.83a2.22,2.22,0,0,0,2.988-1.005,2.276,2.276,0,0,0-1.005-3.023ZM5.175,27.127a4.363,4.363,0,0,1-1,1.512L.661,32.161a2.25,2.25,0,0,0,3.178,3.185L8.016,31.17a4.57,4.57,0,0,0,1-1.512l.949-2.377c-3.888-4.24-2.721-2.939-3.333-3.776L5.175,27.127Z" transform="translate(-0.002)"/>
</svg>
